<svg width="32" height="32" viewBox="0 0 32 32" fill="none" xmlns="http://www.w3.org/2000/svg">
<g clip-path="url(#clip0_18_437)">
<path fill-rule="evenodd" clip-rule="evenodd" d="M16 0C7.164 0 0 7.163 0 15.999C0 24.836 7.164 31.999 16 31.999C24.836 31.999 32 24.836 32 15.999C32 7.163 24.836 0 16 0ZM16 30C8.268 30 2 23.731 2 15.999C2 8.268 8.268 1.999 16 1.999C23.732 1.999 30 8.268 30 15.999C30 23.731 23.732 30 16 30Z" fill="white"/>
<path fill-rule="evenodd" clip-rule="evenodd" d="M18.896 14.746C19.576 14.029 20 13.066 20 12C20 9.791 18.209 8 16 8C13.791 8 12 9.791 12 12C12 13.066 12.424 14.029 13.104 14.746C11.254 15.769 10 17.737 10 20V20.719V21C10 21.552 10.448 22 11 22H11.375H20.719H21C21.552 22 22 21.552 22 21V20.812V20C22 17.737 20.746 15.769 18.896 14.746ZM16 10C17.104 10 18 10.896 18 12C18 13.104 17.104 14 16 14C14.896 14 14 13.104 14 12C14 10.896 14.896 10 16 10ZM12 20C12 17.791 13.791 16 16 16C18.209 16 20 17.791 20 20H12Z" fill="white"/>
</g>
<defs>
<clipPath id="clip0_18_437">
<rect width="32" height="31.999" fill="white"/>
</clipPath>
</defs>
</svg>
